<svg xmlns="http://www.w3.org/2000/svg" width="20" height="20" viewBox="0 0 20 20">
  <path id="パス_1847" data-name="パス 1847" d="M49,437a10,10,0,1,0,10,10A10.011,10.011,0,0,0,49,437Zm0,18.182A8.182,8.182,0,1,1,57.182,447,8.192,8.192,0,0,1,49,455.182Z" transform="translate(-39 -437)" fill="#dadada"/>
  <path id="パス_1848" data-name="パス 1848" d="M52.75,443.464l-5.143,5.143L45.25,446.25a.909.909,0,0,0-1.286,1.286l3,3a.911.911,0,0,0,.643.266h0a.911.911,0,0,0,.643-.266l5.785-5.786a.909.909,0,0,0-1.286-1.286Z" transform="translate(-39 -437)" fill="#dadada"/>
</svg>

