<svg xmlns="http://www.w3.org/2000/svg" width="400.062" height="812" viewBox="0 0 400.062 812">
  <g id="メイン背景">
    <rect id="長方形_203" data-name="長方形 203" width="375" height="812" transform="translate(24)" fill="#0099db"/>
    <path id="パス_733" data-name="パス 733" d="M59.651,367.213a33.823,33.823,0,0,0,5.846.847c2.874.107,10.718,1.675,10.494,4.586s-4.277,7.135-9.393,7.787-11.693-.856-15.044-.759a4.672,4.672,0,0,1-4.317-6.581C48.523,369.8,59.651,367.213,59.651,367.213Z" transform="translate(24)" fill="#160a5b"/>
    <path id="パス_734" data-name="パス 734" d="M42.4,359.367s-1.091,1.762-.555,2.843,1.949,3.767,6.645,1.168,13.641-6.3,13.641-6.3,5.155-2.735,4.872-5.967-5.018-2.736-5.018-2.736Z" transform="translate(24)" fill="#160a5b"/>
    <path id="パス_735" data-name="パス 735" d="M72.737,313.535s-1.949,20.979-6.207,28.942-5.486,22.887-6.343,25.71-3.683,6.921-8.058,7.788-5.106-2.1-4.872-3.894,1.432-4.673,1.452-6.6a20.935,20.935,0,0,0-.5-3.719s-5.018,1.48-5.788-2.4a10.9,10.9,0,0,0,.477-1.713c.068-.574-.429-14.6-.555-16.325a72.244,72.244,0,0,1,2.134-15.4c1.384-4.488.974-14.028.974-14.028l14.284-2Z" transform="translate(24)" fill="#24126a"/>
    <path id="パス_736" data-name="パス 736" d="M72.737,313.535s-1.949,20.979-6.207,28.942-5.486,22.887-6.343,25.71-3.683,6.921-8.058,7.788-5.106-2.1-4.872-3.894,1.432-4.673,1.452-6.6a20.935,20.935,0,0,0-.5-3.719s-5.018,1.48-5.788-2.4a10.9,10.9,0,0,0,.477-1.713c.068-.574-.429-14.6-.555-16.325a72.244,72.244,0,0,1,2.134-15.4c1.384-4.488.974-14.028.974-14.028l14.284-2Z" transform="translate(24)" fill="#fff"/>
    <path id="パス_737" data-name="パス 737" d="M49.673,313.408a16.144,16.144,0,0,0,1.423,6.026s0,11.157,1.121,16.8c0,0-1.851,11.351-3.011,14.924s-.974,10.611-.974,10.611a4.891,4.891,0,0,1-1.393.243c-.819,0-.877-13.863.38-16.316s2.2-13.268,1.725-16.549-.3-12.656-.926-14.32a2.083,2.083,0,0,1,.779-2.522Z" transform="translate(24)" fill="#160a5b"/>
    <path id="パス_738" data-name="パス 738" d="M61.7,237.739a10.246,10.246,0,0,1,3.9,8.177l-3.079-.662S63.47,239.472,61.7,237.739Z" transform="translate(24)" fill="#160a5b"/>
    <path id="パス_739" data-name="パス 739" d="M60.07,317.974c-9.471.292-14.616-3.894-14.616-3.894,0-1.333-.058-2.19-.058-2.19l14.284-2,13.057,3.641s-.4,4.137-1.2,9.433c-2.329.253-4.609-5.451-4.609-5.451l-6.489.418S69.541,317.692,60.07,317.974Z" transform="translate(24)" fill="#160a5b"/>
    <path id="パス_740" data-name="パス 740" d="M70.934,313.847s-20.589,8.391-30.537-7.535a2.764,2.764,0,0,1-.39-1.568l.117-3.709a3.782,3.782,0,0,0-.195-1.372,5.893,5.893,0,0,1-.2-2.969c.77-4.147,2.855-15.421,3.352-18.555.594-3.816-1.432-19.09-4.872-25.71s5.3-21.183,5.3-21.183A5.6,5.6,0,0,1,49.78,229s-3.966,2.765-1.793,5.685,8.692,5.3,8.692,5.3,12.034,6.23,16.146,13.824a31.644,31.644,0,0,1,1.549,8.936c.117,5.053-.438,17.173-.224,18.857s.848,13.23.78,13.765S70.934,313.847,70.934,313.847Z" transform="translate(24)" fill="#453c9e"/>
    <path id="パス_741" data-name="パス 741" d="M70.934,313.847s-20.589,8.391-30.537-7.535a2.764,2.764,0,0,1-.39-1.568l.117-3.709a3.782,3.782,0,0,0-.195-1.372,5.893,5.893,0,0,1-.2-2.969c.77-4.147,2.855-15.421,3.352-18.555.594-3.816-1.432-19.09-4.872-25.71s5.3-21.183,5.3-21.183A5.6,5.6,0,0,1,49.78,229s-3.966,2.765-1.793,5.685,8.692,5.3,8.692,5.3,12.034,6.23,16.146,13.824a31.644,31.644,0,0,1,1.549,8.936c.117,5.053-.438,17.173-.224,18.857s.848,13.23.78,13.765S70.934,313.847,70.934,313.847Z" transform="translate(24)" fill="#fff"/>
    <path id="パス_742" data-name="パス 742" d="M47.841,231.109a2.917,2.917,0,0,1,.078-2.326A5.848,5.848,0,0,1,49.78,229,7.364,7.364,0,0,0,47.841,231.109Z" transform="translate(24)" fill="#fff"/>
    <path id="パス_743" data-name="パス 743" d="M64.7,315.56s-12.121-32.709-11.546-44.576c.565-11.575,17.695,23.451,17.695,23.451l.088,19.412A36.992,36.992,0,0,1,64.7,315.56Z" transform="translate(24)" fill="#24126a"/>
    <path id="パス_744" data-name="パス 744" d="M71.236,276.922a53,53,0,0,1-.721-8.022c-.058-4.653-1.364-12.373-9.744-11.029-11.917,1.9-6.821,18.564-5.515,21.475s6.528,16.131,6.821,16.88,8.487,17.182,11.43,21.135a.72.72,0,0,0,1.072.136c1.2-.973,3.9-3.436,4.229-4.965.448-1.947-1.276-9.092-1.276-9.092s-4.638-17.815-5.028-18.652C72.152,284.174,71.948,281.244,71.236,276.922Z" transform="translate(24)" fill="#4846a5"/>
    <path id="パス_746" data-name="パス 746" d="M50.414,233.845c-1.949-2.366-.906-3.758-.906-3.758a9.37,9.37,0,0,0,0-2.92l4.716.837s7.035-6.25,6.538-2.921,1.257,3.992,1.257,3.992l-1.471,1.849c-.37.468-.146.974.156,1.539,2.007,3.455,6.889,2.414,6.9,2.414a6.891,6.891,0,0,1-2.982.827,4.2,4.2,0,0,0-3.128,2.376C58.17,236.765,52.411,236.21,50.414,233.845Z" transform="translate(24)" fill="#e2b1a6"/>
    <path id="パス_748" data-name="パス 748" d="M49.78,228.977c-.555-.973-1.949-7.3-2.835-10.319a22.135,22.135,0,0,0,7.98,3c4.5.681,13.437-4.391,13.437-4.391v2.3a2.312,2.312,0,0,1-.37,1.265l-1.715,2.648a3.164,3.164,0,0,0-.517,1.723v1.285a.739.739,0,0,1-.643.73h-.448a.724.724,0,0,1-.285-.028.731.731,0,0,1-.514-.634l-.195-1.771s-.9-1.431-2.875.272l-2.572,1.052s-1.559,4.711-2.641,5.315S50.326,229.951,49.78,228.977Z" transform="translate(24)" fill="#936d6d"/>
    <path id="パス_749" data-name="パス 749" d="M49.6,229.3s-3.488,2.141-1.754,5.188S62.252,243,62.876,243.8c0,0,.5-4.566-1.179-6.114,0,0-9.685-1.879-11.186-4.351S49.6,229.3,49.6,229.3Z" transform="translate(24)" fill="#f0f6ff"/>
    <path id="パス_750" data-name="パス 750" d="M49.6,229.3s-.594,1.586.906,4.04c1.14,1.869,6.957,3.4,9.744,4.04,0,0-1.033.584-2.748,3.5-3.9-2.015-8.613-4.6-9.637-6.4C46.117,231.44,49.6,229.3,49.6,229.3Z" transform="translate(24)" fill="#c4ccd6"/>
    <path id="パス_751" data-name="パス 751" d="M47.247,239.043s5.632,3.223,8.38,4.683,5.749,3.4,5.749,3.4l1.052-1.051,1.267,2.784a37.23,37.23,0,0,1,6.353,4.761,21.676,21.676,0,0,1,3.781,5.656s-5.4-7.078-9.656-9.181l-1.14-.584-.653-2.19-1.043,1.129S48.962,240.961,47.247,239.043Z" transform="translate(24)" fill="#24126a"/>
    <path id="パス_752" data-name="パス 752" d="M61.775,334.533a2.855,2.855,0,0,1,.75-1.207L85.7,313.856c.614-.516,1.2-.126,1.315.867l2.718,22.633a3.646,3.646,0,0,1-.906,2.862L69.336,357.031l.672,6.551L64.162,360.9a1.39,1.39,0,0,1-.5-1.1L61.5,336.149A3.894,3.894,0,0,1,61.775,334.533Z" transform="translate(24)" fill="#453c9e"/>
    <path id="パス_753" data-name="パス 753" d="M92.01,316.115l-5.476-2.366-.156-.078a.763.763,0,0,0-.663.214l-23.171,19.47a2.929,2.929,0,0,0-.76,1.207l.838.4,4.716,2.287,20.306-17.357Z" transform="translate(24)" fill="#453c9e"/>
    <path id="パス_754" data-name="パス 754" d="M94.524,342.788,70.788,363.417c-.643.564-1.257.126-1.364-.974l-2.309-23.772a3.7,3.7,0,0,1,.974-2.862L91.25,316.28c.614-.506,1.208-.117,1.325.886l2.845,22.79a3.665,3.665,0,0,1-.9,2.832Z" transform="translate(24)" fill="#24126a"/>
    <path id="パス_755" data-name="パス 755" d="M94.524,342.788,70.788,363.417c-.643.564-1.257.126-1.364-.974l-2.309-23.772a3.7,3.7,0,0,1,.974-2.862L91.25,316.28c.614-.506,1.208-.117,1.325.886l2.845,22.79a3.665,3.665,0,0,1-.9,2.832Z" transform="translate(24)" fill="#fff"/>
    <path id="パス_756" data-name="パス 756" d="M66.52,361.061l-2.231-23.714a3.69,3.69,0,0,1,.974-2.853l23.151-19.47a.8.8,0,0,1,.546-.223.708.708,0,0,0-.741.185L65.068,334.455a3.691,3.691,0,0,0-.974,2.853l2.231,23.7c.068.75.36,1.217.76,1.237C66.773,362.112,66.579,361.684,66.52,361.061Z" transform="translate(24)" fill="#160a5b"/>
    <path id="パス_757" data-name="パス 757" d="M75,326.151l-1.208-.6a1.148,1.148,0,0,0-.75-.136h-.1c-.127,0-.185.155-.166.34v.224l3.41,1.7v-.224a1.041,1.041,0,0,0-.263-.555l-.107-.117A2.753,2.753,0,0,0,75,326.151Z" transform="translate(24)" fill="#160a5b"/>
    <path id="パス_758" data-name="パス 758" d="M74.568,329.082l1.637-1.383-3.381-2.19-1.608,1.343Z" transform="translate(24)" fill="#160a5b"/>
    <path id="パス_759" data-name="パス 759" d="M73.36,327.534l-1.208-.613a1.239,1.239,0,0,0-.76-.137H71.3c-.127,0-.185.156-.166.341v.224l3.41,1.7v-.223a.97.97,0,0,0-.263-.555l-.107-.127A2.867,2.867,0,0,0,73.36,327.534Z" transform="translate(24)" fill="#fff"/>
    <path id="パス_760" data-name="パス 760" d="M72.639,328.108l-.1-.993.1.049.107,1Z" transform="translate(24)" fill="#722318"/>
    <path id="パス_761" data-name="パス 761" d="M72.542,327.115l1.676-1.353.088.039-1.666,1.363Z" transform="translate(24)" fill="#722318"/>
    <path id="パス_762" data-name="パス 762" d="M82.364,319.97l-1.208-.594a1.154,1.154,0,0,0-.75-.136h-.1c-.127,0-.185.155-.166.34v.215l3.4,1.684v-.224a1.071,1.071,0,0,0-.253-.545l-.117-.127A2.784,2.784,0,0,0,82.364,319.97Z" transform="translate(24)" fill="#160a5b"/>
    <path id="パス_763" data-name="パス 763" d="M81.954,322.861l1.618-1.373L80.2,319.327l-1.6,1.334Z" transform="translate(24)" fill="#160a5b"/>
    <path id="パス_764" data-name="パス 764" d="M80.746,321.333l-1.208-.6a1.222,1.222,0,0,0-.75-.136h-.1c-.127,0-.185.156-.166.331v.224l3.4,1.684v-.214a1.168,1.168,0,0,0-.263-.555l-.117-.127A2.791,2.791,0,0,0,80.746,321.333Z" transform="translate(24)" fill="#fff"/>
    <path id="パス_765" data-name="パス 765" d="M80.035,321.907l-.117-.993.107.049.107.993Z" transform="translate(24)" fill="#722318"/>
    <path id="パス_766" data-name="パス 766" d="M79.918,320.914l1.666-1.334.088.049-1.647,1.334Z" transform="translate(24)" fill="#722318"/>
    <path id="パス_767" data-name="パス 767" d="M71.879,322.374l.438,4.225,1.1-.925-.429-4.1a2.161,2.161,0,0,1,.653-1.723l4.716-3.943c.419-.35.818-.155.887.438l.448,4.05,1.082-.9-.468-4.157c-.146-1.3-.974-1.733-1.949-.974l-5.037,4.187a4.863,4.863,0,0,0-1.442,3.825Z" transform="translate(24)" fill="#453c9e"/>
    <path id="パス_768" data-name="パス 768" d="M80.015,315.618l-1.949-.194-5.612,5.237-.244,3.222.107,2.707,1.257.623v-3.359l.068-2.307,1.169-1.665s2.1-1.694,2.124-1.742S80.015,315.618,80.015,315.618Z" transform="translate(24)" fill="#453c9e"/>
    <path id="パス_769" data-name="パス 769" d="M80.951,321.021l-1.257-.623-.331-2.988,1.2.1.351.058Z" transform="translate(24)" fill="#453c9e"/>
    <path id="パス_770" data-name="パス 770" d="M80.9,314.7l-1.345-.662s.351.74.36.73l.448.156Z" transform="translate(24)" fill="#453c9e"/>
    <path id="パス_771" data-name="パス 771" d="M73.136,323l.438,4.225,1.111-.895-.438-4.108A2.207,2.207,0,0,1,74.9,320.5l4.716-3.953c.419-.35.819-.156.887.438l.458,4.06,1.082-.906-.478-4.166c-.146-1.3-.974-1.733-1.949-.974l-5.028,4.2A4.864,4.864,0,0,0,73.136,323Z" transform="translate(24)" fill="#160a5b"/>
    <path id="パス_772" data-name="パス 772" d="M78.408,312.357s.8,4.128.575,5.169a6.816,6.816,0,0,1-3.391,3.4c-1.189.37-.711-1.052-.974-1.947a13.271,13.271,0,0,1-.224-2.833Z" transform="translate(24)" fill="#fcd1c5"/>
    <path id="パス_773" data-name="パス 773" d="M74.393,316.154l4.015-3.8s.166.847.322,1.869a9.9,9.9,0,0,1-4.209,4.284A16.2,16.2,0,0,1,74.393,316.154Z" transform="translate(24)" fill="#e2b1a6"/>
    <path id="パス_774" data-name="パス 774" d="M78.71,312.7s-1.423,4.449-4.989,4.867l1.208-4.867s3.011-.847,3.108-.857S78.71,312.7,78.71,312.7Z" transform="translate(24)" fill="#4846a5"/>
    <g id="グループ_60" data-name="グループ 60" transform="translate(24)" opacity="0.5">
      <path id="パス_775" data-name="パス 775" d="M39.608,157.28h0Zm2.65-1.139h0Zm-1.881.778h0Z" fill="#42e8e0" opacity="0.5"/>
      <path id="パス_776" data-name="パス 776" d="M204.98,337.814a21.267,21.267,0,0,0-21.437-21.251H176.1c-111.235-.877-200.07-42.055-200.07-92.307v63.277c8-3.086,8.818-3.446,12.073,3.991C3.049,323.2,5.641,322.491,9.158,321.7c31.823-12.714,31.424-11.789,39.54-3.369,14.031,14.6,42.327,43.009,51.067,45.277a30.461,30.461,0,0,0,9.471-.671c30.722-10.29,42.873-16.754,72.981-29.692l2.69,4.361c-11.128,4.868-44.764,18.069-75.72,27.813l-.224,1.538c-8.769,2.609-14.46-2.735-16.564-4.322-16.155-13.629-30.323-30.353-46.536-43.963-4.794-4.02-7.727-2.366-9.393-1.947C6.264,328.712,6.264,328.712,1.392,321.4c-8.886-15.722-9.2-16.988-13.32-26.81-.974-2.249-4.141-5.637-5.564-5.461-6.821,1.947-5.846,3.3-6.509,4.117V309.8c0,50.251,88.834,91.43,200.07,92.306h5.495a23.559,23.559,0,0,0,23.386-23.578Z" fill="#42e8e0" opacity="0.5"/>
      <path id="パス_777" data-name="パス 777" d="M108.954,366.96c-7.921,2.025-15.4,3.943-62-46.133-5.846-5.929-5.846-5.929-36.149,6.123-3.44.837-8.633,2.093-22.937-32-4.414-10.066-11.78-1.762-11.848-1.665v-5.724c2.494-1.421,2.67-1.509,6.431-2.57a2.857,2.857,0,0,1,2.066.166c.974.525,2.027,1.7,3.79,5.461C-3.45,308.142-3.45,308.142,2.484,317.76c3.5,5.179,3.5,5.179,31.892-6.084,1.949-.516,5.983-1.607,12.063,3.251,17.11,13.629,31.024,30.675,47.91,44.547,6.343,4.5,10.162,7.214,87.86-26.216l2.689,4.361C173.77,342.487,139.911,357.225,108.954,366.96Z" fill="#42e8e0" opacity="0.5"/>
    </g>
    <path id="パス_778" data-name="パス 778" d="M303.665,233.134c.975,5.685,5.223,19.957,22.616,29.828,24.768,11.429,41.9,26.45,47.666,43.213.41,1.1.975,2.57,1.5,3.612.614-.973.614-.973.614-3.466V278.158c0-16.549-.974-20.17-2.115-24.785-5.748-16.773-22.9-31.794-47.666-43.213C306.491,203.783,301.717,222.29,303.665,233.134Z" transform="translate(24)" fill="#42e8e0" opacity="0.5"/>
    <path id="パス_779" data-name="パス 779" d="M376,301.756c-.146,22.828-1.49,26.985-3.186,32.252-7.074,16.656-25.392,31.366-51.038,42.356-22.411,6.61-28.657-16.7-19.488-33.975a44.888,44.888,0,0,1,19.488-18.837c25.646-10.99,43.964-25.7,51.038-42.356a27.516,27.516,0,0,1,1.949-3.573l.575-.078c.428,1.227.614,1.733.672,7.963v16.248Z" transform="translate(24)" fill="#42e8e0" opacity="0.4"/>
    <path id="パス_780" data-name="パス 780" d="M252.676,395.24c15.407,0,27.9-13.188,27.9-29.458s-12.489-29.458-27.9-29.458-27.9,13.189-27.9,29.458S237.269,395.24,252.676,395.24Z" transform="translate(24)" fill="#42e8e0" opacity="0.3"/>
  </g>
  <g id="コンポーネント_1_23" data-name="コンポーネント 1 – 23" transform="translate(70.649 84)">
    <path id="パス_745" data-name="パス 745" d="M61.492,238.07A4.2,4.2,0,0,1,64.62,235.7c2.192-.215,3.43-.828,3.644-1.636a16.144,16.144,0,0,1,.76-2.989A22.04,22.04,0,0,0,70,226.855c0-.068,1.656-.574,1.734-1.3s-.78-3.33-.682-3.534a6.6,6.6,0,0,0,.867-3.037,15.562,15.562,0,0,0-.974-4.556c-.663-1.509-5.291-10.709-17.334-5.987s-2.923,15.011-4.122,21.631c0,0-1.082,1.392.906,3.757S58.17,236.765,61.492,238.07Z" transform="translate(-46.649 -84)" fill="#fcd1c5"/>
    <path id="パス_747" data-name="パス 747" d="M71.48,210.919s.838,2.473-.516,3.5-2.6,2.025-2.6,2.025v3.134a2.316,2.316,0,0,1-.37,1.266L66.276,223.5a3.161,3.161,0,0,0-.516,1.723v1.285a.737.737,0,0,1-.185.485.745.745,0,0,1-.459.245h-.448a.733.733,0,0,1-.718-.387.735.735,0,0,1-.081-.275l-.195-1.772s-.9-1.431-2.875.273l-1.783.73a1.952,1.952,0,0,0-1.072,1.119c-.5,1.373-1.559,4.07-2.358,4.517-1.072.614-5.242-1.538-5.8-2.492s-1.949-7.3-2.835-10.319-.351-10.436,8.623-12.334S70.252,208.232,71.48,210.919Z" transform="translate(-46.649 -84)" fill="#aa8383"/>
    <path id="パス_781" data-name="パス 781" d="M102,192.788a13.078,13.078,0,0,1-.392,1.372l.784.154h-2.324l.56-.126a5.922,5.922,0,0,0-.364-1.4Zm.588,4.788a7.581,7.581,0,0,1-2.982,1.722c.056-.672.084-1.33.084-1.9v-.21a5.618,5.618,0,0,1,.812.826,8.708,8.708,0,0,0,2.968-1.764l-1.246-.518a7.1,7.1,0,0,1-2.534,1.316V195.7h4.48v-1.386h-1.176c.14-.378.308-.882.518-1.414l-.56-.112h1.162V191.43H101.9v-1.2h-1.624v1.2h-2.3v1.358h1.666l-.714.14a8.86,8.86,0,0,1,.308,1.386H98.206v3.066a9.72,9.72,0,0,1-.756,4.466,6.136,6.136,0,0,1,1.162,1.008,8.843,8.843,0,0,0,.98-3.528,5.192,5.192,0,0,1,.91.938,8.8,8.8,0,0,0,3.332-2.184Zm.294,1.988a6.621,6.621,0,0,1-3.556,2.338,5.1,5.1,0,0,1,.9,1.106,7.754,7.754,0,0,0,4.032-3Zm3.136-1.232h2.828v.868h-2.828Zm0-2.044h2.828v.868h-2.828Zm0-2.016h2.828v.854h-2.828Zm4.326,6.16v-7.42h-2.38q.147-.441.294-.924H110.6v-1.4H104.24v1.4h2.338c-.028.308-.084.616-.14.924H104.59v7.42h1.148a8.972,8.972,0,0,1-2.59,1.764,8.842,8.842,0,0,1,1.106,1.05,11.331,11.331,0,0,0,2.87-2l-1.274-.812Zm-2.674.826a17.148,17.148,0,0,1,2.03,1.946l1.3-.882a17.816,17.816,0,0,0-2.114-1.848Zm15.05-9.184c-.1,2.072-.21,2.9-.406,3.122a.435.435,0,0,1-.42.168c-.14,0-.378,0-.672-.014l.672-1.078a11.331,11.331,0,0,0-1.274-.7,11.07,11.07,0,0,0,.35-1.5Zm-5.544,1.568a16.352,16.352,0,0,1,1.54.588,4.6,4.6,0,0,1-2.016,1.764,3.954,3.954,0,0,1,.938,1.176,5.693,5.693,0,0,0,2.408-2.282c.28.154.532.308.77.462a4.018,4.018,0,0,1,.392,1.456,9.415,9.415,0,0,0,1.512-.056,1.252,1.252,0,0,0,.924-.532c.378-.448.518-1.75.658-4.914.014-.2.014-.616.014-.616h-6.944v1.386h2.1q-.084.441-.21.882c-.448-.168-.9-.336-1.316-.462Zm1.834,3.584a10.483,10.483,0,0,1,2.436,1.876l1.036-1.064a9.724,9.724,0,0,0-2.506-1.778Zm-2.674-6.65h-3.99v1.26h3.99Zm.42,1.876h-5.082v1.316h5.082Zm-.378,1.946H112.3v1.274h4.074Zm-4.074,3.164h4.074v-1.246H112.3Zm2.7,3.612h-1.372v-1.61h1.372Zm1.386-2.926h-4.13v4.774h1.372v-.546h2.758v-.686l1.134.686a6.664,6.664,0,0,0,1.078-3.4l-1.316-.336a6.318,6.318,0,0,1-.9,2.884Zm4.13,3.43c-.252,0-.28-.042-.28-.434v-3.052H118.7v3.066c0,1.386.266,1.848,1.582,1.848h1.148c.994,0,1.4-.462,1.554-2.3a4.011,4.011,0,0,1-1.358-.6c-.042,1.288-.1,1.47-.364,1.47Zm1.568-2.73a10.351,10.351,0,0,1,1.4,3.528l1.47-.6a10.4,10.4,0,0,0-1.526-3.458Zm8.274-8.372h-3.948v1.26h3.948Zm-1.33,9.17v1.6H127.69v-1.6Zm1.428-1.316H126.29V203.2h1.4v-.546h2.772Zm-4.13-.714h4.032v-1.26h-4.032Zm4.032-3.206h-4.032v1.246h4.032Zm-4.69-.686h5.194v-1.316h-5.194Zm10.346,7.35V197.31h2.422v-1.568H136.02v-3.3h2.492v-1.582H131.3v1.582h3.08v8.736h-1.064v-6.636h-1.554v6.636h-.854v1.554h7.868v-1.554Zm4.158-8.778.182,1.918c1.624-.35,4.48-.658,5.8-.8a5.6,5.6,0,0,0-2.086,4.326c0,3.038,2.772,4.606,5.712,4.8l.658-1.918c-2.38-.126-4.536-.952-4.536-3.262a4.254,4.254,0,0,1,2.968-3.92,14.543,14.543,0,0,1,2.7-.2l-.014-1.792c-.994.042-2.52.126-3.962.252-2.562.21-4.872.42-6.048.518C141.284,192.354,140.738,192.382,140.178,192.4Zm9.394,2.324-1.036.434a10.8,10.8,0,0,1,1.092,1.946l1.064-.476A17.38,17.38,0,0,0,149.572,194.72Zm1.568-.644-1.022.476a12.317,12.317,0,0,1,1.148,1.89l1.05-.5A20.936,20.936,0,0,0,151.14,194.076Zm13.748-1.568-1.148-.854a5.018,5.018,0,0,1-1.442.182h-4.942a15.641,15.641,0,0,1-1.652-.1v1.988c.294-.014,1.064-.1,1.652-.1H162.1a10.848,10.848,0,0,1-2.086,3.43,15.694,15.694,0,0,1-5.74,4.018l1.442,1.512a18.441,18.441,0,0,0,5.264-3.934,31.923,31.923,0,0,1,3.528,3.962l1.6-1.386a39.357,39.357,0,0,0-3.906-4,20.583,20.583,0,0,0,2.2-3.85A6.616,6.616,0,0,1,164.888,192.508Zm15.242.672-1.4-1.148a4.522,4.522,0,0,1-1.3.154h-7.77a13.442,13.442,0,0,1-1.61-.126v1.96c.294-.028,1.05-.1,1.61-.1h7.406a15.538,15.538,0,0,1-3.556,4.032c-.882-.77-1.806-1.526-2.366-1.946l-1.484,1.19a29.782,29.782,0,0,1,3.08,2.688,36.483,36.483,0,0,1,2.674,3.024l1.638-1.3c-.546-.658-1.372-1.568-2.17-2.366a23.325,23.325,0,0,0,4.774-5.474A4.882,4.882,0,0,1,180.13,193.18Zm1.946,2.338v2.2c.518-.042,1.456-.07,2.254-.07h7.518c.588,0,1.3.056,1.638.07v-2.2c-.364.028-.98.084-1.638.084H184.33C183.6,195.6,182.58,195.56,182.076,195.518Zm17.108,5.138a15.377,15.377,0,0,1-.14,1.96h2.184c-.056-.574-.126-1.554-.126-1.96v-3.962a40.439,40.439,0,0,1,5.054,2.086l.8-1.932a45.724,45.724,0,0,0-5.852-2.17v-2.072a15.222,15.222,0,0,1,.126-1.68h-2.184a9.719,9.719,0,0,1,.14,1.68Zm15.876-8.442v1.792a37.575,37.575,0,0,0,6.02,0V192.2A28.789,28.789,0,0,1,215.06,192.214Zm1.12,5.978-1.61-.154a8.553,8.553,0,0,0-.238,1.82c0,1.442,1.162,2.3,3.57,2.3a19.827,19.827,0,0,0,3.612-.266l-.028-1.89a16.549,16.549,0,0,1-3.514.364c-1.428,0-1.96-.378-1.96-.994A4.752,4.752,0,0,1,216.18,198.192Zm-3.276-6.916-1.96-.168c-.014.448-.1.98-.14,1.372a39.037,39.037,0,0,0-.588,5.544,17.9,17.9,0,0,0,.546,4.578l1.624-.112c-.014-.2-.028-.42-.028-.574a4.225,4.225,0,0,1,.07-.658c.154-.742.616-2.268,1.008-3.43l-.868-.686c-.2.462-.42.952-.63,1.428a6.754,6.754,0,0,1-.056-.91,37.131,37.131,0,0,1,.672-5.138C212.61,192.27,212.792,191.57,212.9,191.276Zm16,1.988v2.954h-2.422l1.33-.518a9.975,9.975,0,0,0-1.19-2.436Zm4.13,0a15.766,15.766,0,0,1-1.19,2.548l1.176.406H230.67v-2.954Zm3.01,4.55v-1.6H233.33a25.828,25.828,0,0,0,1.47-2.478l-1.61-.476h2.324v-1.6H230.67v-1.526h-1.764v1.526h-4.718v1.6h2.38l-1.442.546a9.765,9.765,0,0,1,1.05,2.408H223.53v1.6h4.4a13.216,13.216,0,0,1-4.788,3.5,7.9,7.9,0,0,1,1.176,1.4,14.527,14.527,0,0,0,4.592-3.78v4.27h1.764v-4.3a14.156,14.156,0,0,0,4.578,3.836,7.814,7.814,0,0,1,1.162-1.4,12.981,12.981,0,0,1-4.746-3.528Zm6.146-7.238h-4.228v1.26h4.228Zm.364,1.876H237.25v1.316h5.306Zm-.336,1.946h-4.312v1.274h4.312Zm-4.312,3.164h4.312v-1.246h-4.312Zm2.856,3.612H239.28v-1.61h1.484Zm9.618-7.112v-1.568h-3.066v-2.338h-1.708v2.338h-2.842v1.568H244.6c-.1,2.842-.28,5.866-2.394,7.728v-3.542h-4.34v4.774h1.414v-.546h2.926v-.406a4.862,4.862,0,0,1,1.064,1.162,9.328,9.328,0,0,0,2.786-5.964h2.128c-.126,2.772-.266,3.906-.518,4.186a.565.565,0,0,1-.49.2c-.28,0-.868-.014-1.484-.07a3.963,3.963,0,0,1,.476,1.582,12.266,12.266,0,0,0,1.82-.028,1.574,1.574,0,0,0,1.134-.616c.434-.546.588-2.1.756-6.1v-.686h-3.654c.042-.56.07-1.106.1-1.666Zm3.654-.714h10.108v-1.582H259.09v-1.61h-1.736v1.61H252.37v3.528c0,2.016-.1,4.956-1.246,6.958a7.733,7.733,0,0,1,1.442.938c1.26-2.184,1.47-5.642,1.47-7.9Zm7.35,2.072A17.631,17.631,0,0,0,258,193.39l-1.106,1.092a16.15,16.15,0,0,1,3.29,2.184ZM255.268,202a12.892,12.892,0,0,0,1.036-4.578l-1.5-.322a11.589,11.589,0,0,1-1.022,4.242Zm3.626-.532c-.392,0-.448-.07-.448-.574v-4.872h-1.652v4.886c0,1.554.35,2.044,1.834,2.044h1.554c1.3,0,1.722-.672,1.876-3.066a4.382,4.382,0,0,1-1.47-.672c-.056,1.932-.14,2.254-.56,2.254Zm2.254-4.158a16.645,16.645,0,0,1,1.708,4.676l1.638-.672a16.679,16.679,0,0,0-1.862-4.578Zm8.288-3.192a16.408,16.408,0,0,1-.672,2.828c-.616-.742-1.246-1.456-1.848-2.1l-1.19.938c.77.854,1.6,1.848,2.338,2.842a7.772,7.772,0,0,1-2.982,3.178,7.3,7.3,0,0,1,1.12,1.3,9.414,9.414,0,0,0,2.87-3.024,13.069,13.069,0,0,1,.952,1.722l1.33-1.134a13.867,13.867,0,0,0-1.442-2.268,19.129,19.129,0,0,0,1.148-4.074Zm2.058,2.478a11.665,11.665,0,0,1,1.442,3.052l1.442-.742a10.99,10.99,0,0,0-1.554-2.954Zm6.79-3.346h-1.5v-3.108h-1.638v3.108H272.1V192.3h-2.59v-2.142h-1.6V192.3h-2.436v1.54h6.16v1.008h3.514v6.3c0,.224-.084.294-.336.294s-.994.014-1.778-.028a6.859,6.859,0,0,1,.532,1.792,5.58,5.58,0,0,0,2.52-.364c.532-.266.7-.756.7-1.694v-6.3h1.5Z" transform="translate(-46.649 -84)" fill="#fcfcff"/>
    <path id="パス_789" data-name="パス 789" d="M140.575,85.428h15.471v3.106H144.279v9.525h10.876v3.063H144.279V114.1h-3.7Z" transform="translate(-46.649 -84)" fill="#fff"/>
    <path id="パス_790" data-name="パス 790" d="M144.279,114.421h-3.705a.319.319,0,0,1-.32-.32V85.428a.321.321,0,0,1,.32-.32h15.472a.319.319,0,0,1,.32.32v3.105a.319.319,0,0,1-.32.32H144.6v8.9h10.556a.3.3,0,0,1,.121.019.308.308,0,0,1,.1.065.317.317,0,0,1,.07.1.311.311,0,0,1,.024.121v3.064a.322.322,0,0,1-.094.227.318.318,0,0,1-.226.093H144.6V114.1a.322.322,0,0,1-.094.227A.318.318,0,0,1,144.279,114.421Zm-3.4-.64h3.091V101.122A.3.3,0,0,1,144,101a.317.317,0,0,1,.066-.1.306.306,0,0,1,.1-.066.313.313,0,0,1,.117-.023h10.556V98.379H144.279a.3.3,0,0,1-.121-.025.312.312,0,0,1-.1-.07.291.291,0,0,1-.065-.1.314.314,0,0,1-.02-.121V88.533a.321.321,0,0,1,.307-.32H155.74V85.748H140.881Z" transform="translate(-46.649 -84)" fill="#fff"/>
    <path id="パス_791" data-name="パス 791" d="M170.431,114.1l-.306-2.59H170a7.683,7.683,0,0,1-6.308,3.063,5.875,5.875,0,0,1-6.308-5.89c0-4.972,4.428-7.7,12.408-7.66v-.417c0-1.713-.474-4.777-4.694-4.777a10.32,10.32,0,0,0-5.375,1.532l-.849-2.465a12.908,12.908,0,0,1,6.782-1.824c6.308,0,7.84,4.289,7.84,8.425v7.7a27.968,27.968,0,0,0,.348,4.93Zm-.557-10.514c-4.094-.084-8.745.64-8.745,4.637a3.313,3.313,0,0,0,3.537,3.579,5.152,5.152,0,0,0,5-3.44,4,4,0,0,0,.209-1.2Z" transform="translate(-46.649 -84)" fill="#fff"/>
    <path id="パス_792" data-name="パス 792" d="M163.691,114.881a6.224,6.224,0,0,1-6.628-6.225A6.641,6.641,0,0,1,159,103.782c2.034-2.006,5.654-3.078,10.473-3.106v-.1c0-2.952-1.393-4.457-4.373-4.457a10.079,10.079,0,0,0-5.208,1.42.3.3,0,0,1-.133.032.291.291,0,0,1-.132-.032.311.311,0,0,1-.121-.074.3.3,0,0,1-.074-.121l-.849-2.465a.3.3,0,0,1,.125-.376,13.034,13.034,0,0,1,6.963-1.88c6.74,0,8.16,4.763,8.16,8.746v7.7a28.4,28.4,0,0,0,.335,4.874.315.315,0,0,1,0,.14.3.3,0,0,1-.066.124.286.286,0,0,1-.1.084.3.3,0,0,1-.132.028h-3.412a.334.334,0,0,1-.21-.082.339.339,0,0,1-.11-.2l-.223-1.977a8.107,8.107,0,0,1-6.211,2.813Zm5.919-13.564c-4.721,0-8.244,1-10.166,2.924a6,6,0,0,0-1.755,4.415,5.57,5.57,0,0,0,6,5.57,7.41,7.41,0,0,0,6.058-2.924.3.3,0,0,1,.108-.1.313.313,0,0,1,.143-.039h.125a.326.326,0,0,1,.213.079.317.317,0,0,1,.107.2l.265,2.312h2.785a29.984,29.984,0,0,1-.278-4.61v-7.7c0-5.389-2.535-8.1-7.534-8.1a12.869,12.869,0,0,0-6.406,1.643l.64,1.852a10.8,10.8,0,0,1,5.209-1.393c3.231,0,5.013,1.8,5.013,5.083v.418a.334.334,0,0,1-.32.32h-.181Zm-4.944,10.806a3.619,3.619,0,0,1-3.843-3.9,4.054,4.054,0,0,1,1.2-2.994c1.393-1.393,4.039-2.033,7.868-1.95a.311.311,0,0,1,.217.09.306.306,0,0,1,.066.1.3.3,0,0,1,.024.117v3.579a4.18,4.18,0,0,1-.237,1.295,5.473,5.473,0,0,1-5.292,3.662Zm4.6-8.216q-4.951,0-6.81,1.783a3.38,3.38,0,0,0-1,2.534,3.008,3.008,0,0,0,3.217,3.259,4.83,4.83,0,0,0,4.693-3.231,3.558,3.558,0,0,0,.2-1.086v-3.259Z" transform="translate(-46.649 -84)" fill="#fff"/>
    <path id="パス_793" data-name="パス 793" d="M193.785,113.335a13.81,13.81,0,0,1-5.932,1.2c-6.225,0-10.277-4.178-10.277-10.514a10.472,10.472,0,0,1,11.14-10.932,12.8,12.8,0,0,1,5.209,1.058l-.85,2.9a8.745,8.745,0,0,0-4.359-.975c-4.734,0-7.3,3.481-7.3,7.785,0,4.762,3.078,7.7,7.172,7.7a10.64,10.64,0,0,0,4.61-1.031Z" transform="translate(-46.649 -84)" fill="#fff"/>
    <path id="パス_794" data-name="パス 794" d="M187.853,114.839c-6.336,0-10.6-4.345-10.6-10.821a10.834,10.834,0,0,1,11.406-11.252,12.963,12.963,0,0,1,5.347,1.1.291.291,0,0,1,.153.376l-.849,2.883a.344.344,0,0,1-.068.124.334.334,0,0,1-.113.085.322.322,0,0,1-.279,0,8.353,8.353,0,0,0-4.177-.947c-4.178,0-6.963,2.938-6.963,7.478s2.785,7.381,6.851,7.381a10.477,10.477,0,0,0,4.484-.989.293.293,0,0,1,.133-.032.289.289,0,0,1,.132.032.365.365,0,0,1,.167.209l.641,2.785a.322.322,0,0,1-.168.348A14.107,14.107,0,0,1,187.853,114.839Zm.808-21.432c-6.448,0-10.765,4.261-10.765,10.611s3.9,10.194,9.957,10.194a14.189,14.189,0,0,0,5.57-1.044l-.5-2.2a10.845,10.845,0,0,1-4.387.892c-4.47,0-7.478-3.217-7.478-8.008s3.05-8.1,7.6-8.1a9.48,9.48,0,0,1,4.177.836l.669-2.256a12.45,12.45,0,0,0-4.846-.961Z" transform="translate(-46.649 -84)" fill="#fff"/>
    <path id="パス_795" data-name="パス 795" d="M199.258,104.506c.084,5.055,3.329,7.144,7.089,7.144a13.73,13.73,0,0,0,5.709-1.059l.641,2.674a16.7,16.7,0,0,1-6.866,1.281c-6.35,0-10.152-4.177-10.152-10.388s3.663-11.141,9.679-11.141c6.74,0,8.537,5.919,8.537,9.748a14.72,14.72,0,0,1-.126,1.755Zm11-2.688c0-2.381-.975-6.086-5.194-6.086-3.8,0-5.459,3.5-5.766,6.086Z" transform="translate(-46.649 -84)" fill="#fff"/>
    <path id="パス_796" data-name="パス 796" d="M205.831,114.839c-6.364,0-10.458-4.178-10.458-10.695,0-6.726,4.178-11.419,9.985-11.419,6.531,0,8.843,5.4,8.843,10.013a14.288,14.288,0,0,1-.1,1.6v.181a.307.307,0,0,1-.306.279H199.579a6.268,6.268,0,0,0,6.754,6.517,13.3,13.3,0,0,0,5.57-1.031.3.3,0,0,1,.132-.031.305.305,0,0,1,.133.031.3.3,0,0,1,.107.086.3.3,0,0,1,.06.123l.64,2.688a.32.32,0,0,1-.181.362A17.2,17.2,0,0,1,205.831,114.839Zm-.473-21.474c-5.57,0-9.358,4.428-9.358,10.779s3.76,10.068,9.831,10.068a16.791,16.791,0,0,0,6.5-1.141l-.5-2.061a14.079,14.079,0,0,1-5.486.933c-4.554,0-7.325-2.786-7.4-7.451a.318.318,0,0,1,.084-.223.272.272,0,0,1,.1-.074.268.268,0,0,1,.122-.023h14.247a12.017,12.017,0,0,0,.1-1.393C213.574,98.421,211.43,93.365,205.358,93.365Zm4.9,8.76H199.3a.349.349,0,0,1-.237-.112.314.314,0,0,1,0-.236c.363-3.175,2.382-6.365,6.072-6.365a5.126,5.126,0,0,1,3.8,1.393,7.226,7.226,0,0,1,1.713,4.958.307.307,0,0,1-.006.159.294.294,0,0,1-.084.135.309.309,0,0,1-.3.068Zm-10.6-.627h10.292a6.408,6.408,0,0,0-1.532-4.178,4.554,4.554,0,0,0-3.356-1.267C201.487,96.039,200.024,99.312,199.662,101.5Z" transform="translate(-46.649 -84)" fill="#fff"/>
    <path id="パス_797" data-name="パス 797" d="M140.575,129.489a39.192,39.192,0,0,1,7.116-.585c3.969,0,6.531.724,8.355,2.339a7.127,7.127,0,0,1,2.27,5.445A7.521,7.521,0,0,1,152.9,144v.125c2.214.766,3.537,2.785,4.178,5.793a45.214,45.214,0,0,0,2.214,7.868h-3.83a36.275,36.275,0,0,1-1.921-6.851c-.864-3.955-2.4-5.445-5.766-5.571h-3.495v12.422h-3.7Zm3.7,13.062h3.774c3.969,0,6.475-2.172,6.475-5.445,0-3.7-2.687-5.319-6.614-5.361a15.28,15.28,0,0,0-3.663.348Z" transform="translate(-46.649 -84)" fill="#fff"/>
    <path id="パス_798" data-name="パス 798" d="M159.291,158.093h-3.83a.308.308,0,0,1-.16-.038.3.3,0,0,1-.118-.115,33.681,33.681,0,0,1-1.95-6.963c-.822-3.816-2.256-5.209-5.473-5.334H144.6v12.116a.308.308,0,0,1-.1.221.3.3,0,0,1-.1.066.313.313,0,0,1-.121.019h-3.705a.313.313,0,0,1-.121-.019.307.307,0,0,1-.1-.066.308.308,0,0,1-.1-.221v-28.27a.323.323,0,0,1,.073-.2.317.317,0,0,1,.178-.109,39.16,39.16,0,0,1,7.186-.6c4.038,0,6.67.752,8.522,2.423a7.367,7.367,0,0,1,2.368,5.682,7.743,7.743,0,0,1-5.028,7.38c1.894.906,3.148,2.786,3.83,5.78a46.908,46.908,0,0,0,2.186,7.784.308.308,0,0,1,0,.307.333.333,0,0,1-.119.111A.343.343,0,0,1,159.291,158.093Zm-3.649-.627H158.8a57.212,57.212,0,0,1-2.033-7.478c-.7-3.05-2.019-4.874-4.024-5.57a.321.321,0,0,1-.154-.12.325.325,0,0,1-.055-.187v-.125a.294.294,0,0,1,.223-.293,7.227,7.227,0,0,0,5.194-6.962,6.744,6.744,0,0,0-2.159-5.209c-1.726-1.573-4.177-2.27-8.1-2.27a39.932,39.932,0,0,0-6.81.543v27.629h3.091v-12.1a.316.316,0,0,1,.02-.122.29.29,0,0,1,.065-.1.306.306,0,0,1,.1-.07.312.312,0,0,1,.121-.025h3.495c3.537.14,5.181,1.713,6.072,5.822a46.919,46.919,0,0,0,1.8,6.6Zm-7.589-14.594h-3.8a.3.3,0,0,1-.121-.025.3.3,0,0,1-.166-.174.3.3,0,0,1-.019-.121V132.093a.3.3,0,0,1,.222-.306,15.771,15.771,0,0,1,3.746-.348c4.471,0,6.963,2.061,6.963,5.668S152.23,142.872,148.053,142.872Zm-3.482-.627h3.482c3.746,0,6.169-2.019,6.169-5.138,0-4.178-3.426-5.014-6.309-5.042a16.868,16.868,0,0,0-3.342.265Z" transform="translate(-46.649 -84)" fill="#fff"/>
    <path id="パス_799" data-name="パス 799" d="M165.168,148.178c.083,5.055,3.328,7.144,7.074,7.144a13.563,13.563,0,0,0,5.724-1.073l.64,2.688a16.774,16.774,0,0,1-6.879,1.267c-6.35,0-10.138-4.177-10.138-10.374s3.662-11.141,9.678-11.141c6.74,0,8.523,5.9,8.523,9.748a14.925,14.925,0,0,1-.125,1.755Zm11-2.688c0-2.381-.975-6.086-5.208-6.086-3.788,0-5.459,3.5-5.752,6.086Z" transform="translate(-46.649 -84)" fill="#fff"/>
    <path id="パス_800" data-name="パス 800" d="M171.726,158.524c-6.35,0-10.458-4.177-10.458-10.7,0-6.726,4.108-11.419,10-11.419,6.531,0,8.843,5.4,8.843,10.013a13.832,13.832,0,0,1-.112,1.6v.181a.326.326,0,0,1-.11.2.33.33,0,0,1-.21.082h-14.19A6.28,6.28,0,0,0,172.242,155a13.177,13.177,0,0,0,5.57-1.044.347.347,0,0,1,.265,0,.359.359,0,0,1,.167.209l.64,2.687a.3.3,0,0,1-.181.348A16.922,16.922,0,0,1,171.726,158.524Zm-.459-21.487c-5.57,0-9.372,4.442-9.372,10.792s3.774,10.069,9.831,10.069a16.73,16.73,0,0,0,6.5-1.142l-.488-2.075a14.21,14.21,0,0,1-5.5.947c-4.554,0-7.311-2.785-7.4-7.451a.336.336,0,0,1,.32-.32h14.219a12.013,12.013,0,0,0,.1-1.393C179.483,142.106,177.3,137.037,171.267,137.037Zm4.9,8.773h-10.96a.284.284,0,0,1-.131-.028.289.289,0,0,1-.106-.083.393.393,0,0,1-.083-.251c.376-3.161,2.395-6.35,6.072-6.35a5.172,5.172,0,0,1,3.815,1.392,7.2,7.2,0,0,1,1.713,4.944.333.333,0,0,1-.011.137.337.337,0,0,1-.066.122.332.332,0,0,1-.109.084A.348.348,0,0,1,176.169,145.81Zm-10.6-.641H175.9a6.318,6.318,0,0,0-1.532-4.177,4.509,4.509,0,0,0-3.356-1.268C167.4,139.724,165.919,143,165.571,145.169Z" transform="translate(-46.649 -84)" fill="#fff"/>
    <path id="パス_801" data-name="パス 801" d="M199.049,157.021a13.726,13.726,0,0,1-5.918,1.183c-6.225,0-10.278-4.177-10.278-10.5a10.474,10.474,0,0,1,11.141-10.932,12.8,12.8,0,0,1,5.209,1.059l-.864,2.9a8.63,8.63,0,0,0-4.345-.974c-4.735,0-7.3,3.481-7.3,7.784,0,4.763,3.078,7.7,7.172,7.7a10.645,10.645,0,0,0,4.609-1.03Z" transform="translate(-46.649 -84)" fill="#fff"/>
    <path id="パス_802" data-name="パス 802" d="M193.131,158.524c-6.336,0-10.6-4.344-10.6-10.82a10.835,10.835,0,0,1,11.406-11.252,12.965,12.965,0,0,1,5.347,1.1.335.335,0,0,1,.153.376l-.849,2.883a.35.35,0,0,1-.068.124.337.337,0,0,1-.113.085.384.384,0,0,1-.279,0,8.342,8.342,0,0,0-4.177-.947c-4.178,0-6.963,2.938-6.963,7.478s2.785,7.381,6.851,7.381a10.415,10.415,0,0,0,4.47-.989.32.32,0,0,1,.279,0,.362.362,0,0,1,.167.209l.627,2.785a.316.316,0,0,1-.016.2.306.306,0,0,1-.137.147A14.1,14.1,0,0,1,193.131,158.524Zm.808-21.445c-6.448,0-10.779,4.275-10.779,10.625s3.913,10.194,9.971,10.194a14.062,14.062,0,0,0,5.57-1.045l-.515-2.214a10.779,10.779,0,0,1-4.373.891c-4.47,0-7.478-3.216-7.478-8.007s3.05-8.1,7.6-8.1a9.36,9.36,0,0,1,4.177.836l.669-2.27a12.527,12.527,0,0,0-4.777-.9Z" transform="translate(-46.649 -84)" fill="#fff"/>
    <path id="パス_803" data-name="パス 803" d="M204.536,148.178c.083,5.055,3.328,7.144,7.074,7.144a13.563,13.563,0,0,0,5.724-1.073l.64,2.688a16.7,16.7,0,0,1-6.865,1.267c-6.364,0-10.152-4.177-10.152-10.374s3.662-11.141,9.678-11.141c6.74,0,8.523,5.9,8.523,9.748a14.932,14.932,0,0,1-.125,1.755Zm11-2.688c0-2.381-.975-6.086-5.194-6.086-3.8,0-5.459,3.5-5.765,6.086Z" transform="translate(-46.649 -84)" fill="#fff"/>
    <path id="パス_804" data-name="パス 804" d="M211.11,158.524c-6.365,0-10.473-4.177-10.473-10.7,0-6.726,4.178-11.419,10-11.419,6.531,0,8.843,5.4,8.843,10.013a11.278,11.278,0,0,1-.111,1.6v.181a.323.323,0,0,1-.108.2.326.326,0,0,1-.213.079h-14.19A6.28,6.28,0,0,0,211.611,155a13.177,13.177,0,0,0,5.57-1.044.347.347,0,0,1,.265,0,.359.359,0,0,1,.167.209l.641,2.687a.31.31,0,0,1-.028.207.3.3,0,0,1-.154.141A16.9,16.9,0,0,1,211.11,158.524Zm-.474-21.487c-5.57,0-9.372,4.442-9.372,10.792s3.774,10.069,9.846,10.069a16.736,16.736,0,0,0,6.489-1.142l-.487-2.075a14.218,14.218,0,0,1-5.5.947c-4.54,0-7.311-2.785-7.395-7.451a.332.332,0,0,1,.1-.222.275.275,0,0,1,.1-.075.268.268,0,0,1,.122-.023h14.219a12.017,12.017,0,0,0,.1-1.393C218.852,142.106,216.694,137.037,210.636,137.037Zm4.9,8.773h-10.96a.311.311,0,0,1-.131-.027.3.3,0,0,1-.17-.2.3.3,0,0,1,0-.134c.362-3.161,2.381-6.35,6.072-6.35a5.126,5.126,0,0,1,3.8,1.392,7.2,7.2,0,0,1,1.713,4.944.331.331,0,0,1-.006.14.325.325,0,0,1-.065.123.333.333,0,0,1-.112.085A.323.323,0,0,1,215.538,145.81Zm-10.6-.641h10.278a6.371,6.371,0,0,0-1.518-4.177,4.559,4.559,0,0,0-3.356-1.268C206.765,139.724,205.3,143,204.94,145.169Z" transform="translate(-46.649 -84)" fill="#fff"/>
    <path id="パス_805" data-name="パス 805" d="M223.378,143.916c0-2.632-.084-4.762-.167-6.726h3.37l.167,3.537h.084a8.115,8.115,0,0,1,7.339-4c4.985,0,8.745,4.177,8.745,10.458,0,7.409-4.526,11.057-9.386,11.057a7.223,7.223,0,0,1-6.35-3.231H227.1v11.141h-3.718ZM227.1,149.4a8.666,8.666,0,0,0,.167,1.532,5.795,5.795,0,0,0,5.571,4.387c3.969,0,6.266-3.231,6.266-7.966,0-4.178-2.172-7.645-6.141-7.645a5.989,5.989,0,0,0-5.668,4.637,6.08,6.08,0,0,0-.251,1.532Z" transform="translate(-46.649 -84)" fill="#fff"/>
    <path id="パス_806" data-name="パス 806" d="M227.1,166.518h-3.718a.318.318,0,0,1-.118-.023.312.312,0,0,1-.1-.066.317.317,0,0,1-.066-.1.3.3,0,0,1-.024-.117V143.93c0-2.618-.083-4.748-.181-6.712a.341.341,0,0,1,.1-.223.333.333,0,0,1,.223-.1h3.37a.288.288,0,0,1,.116.018.283.283,0,0,1,.166.159.286.286,0,0,1,.024.115l.139,2.7a8.48,8.48,0,0,1,7.144-3.468c5.25,0,9.052,4.54,9.052,10.779,0,7.868-4.86,11.377-9.748,11.377a7.811,7.811,0,0,1-6.127-2.673v10.319a.3.3,0,0,1-.074.19A.3.3,0,0,1,227.1,166.518Zm-3.4-.626h3.078V155.015a.31.31,0,0,1,.024-.12.3.3,0,0,1,.07-.1.3.3,0,0,1,.226-.085h.083a.292.292,0,0,1,.265.153,6.963,6.963,0,0,0,6.086,3.078c4.512,0,9.065-3.328,9.065-10.751,0-5.974-3.467-10.152-8.425-10.152a7.744,7.744,0,0,0-7.06,3.858.379.379,0,0,1-.122.107.4.4,0,0,1-.157.046h-.083a.3.3,0,0,1-.117-.024.306.306,0,0,1-.1-.066.311.311,0,0,1-.09-.217l-.167-3.23h-2.785c.07,1.88.153,3.927.153,6.4Zm9.191-10.264a6.07,6.07,0,0,1-5.932-4.609,9.343,9.343,0,0,1-.181-1.616V145.88a6.184,6.184,0,0,1,.264-1.615,6.309,6.309,0,0,1,5.974-4.874c3.8,0,6.462,3.272,6.462,7.965C239.476,152.383,236.886,155.628,232.889,155.628ZM233,140.017a5.669,5.669,0,0,0-5.361,4.4,5.933,5.933,0,0,0-.251,1.392v3.524a8.23,8.23,0,0,0,.167,1.476,5.476,5.476,0,0,0,5.32,4.178c3.677,0,5.96-2.925,5.96-7.646C238.849,143.708,237.039,140.017,233,140.017Z" transform="translate(-46.649 -84)" fill="#fff"/>
    <path id="パス_807" data-name="パス 807" d="M251.648,131.286v5.9h5.375v2.785h-5.375v11.141c0,2.562.724,4,2.785,4a8.368,8.368,0,0,0,2.172-.251l.181,2.785a9.363,9.363,0,0,1-3.328.5,5.164,5.164,0,0,1-4.052-1.574c-1.073-1.1-1.393-2.924-1.393-5.348V139.989h-3.2V137.2h3.2v-4.93Z" transform="translate(-46.649 -84)" fill="#fff"/>
    <path id="パス_808" data-name="パス 808" d="M253.486,158.525a5.48,5.48,0,0,1-4.29-1.686c-1.044-1.072-1.532-2.785-1.532-5.57V140.351h-2.882a.322.322,0,0,1-.227-.094.318.318,0,0,1-.093-.226v-2.785a.311.311,0,0,1,.024-.121.306.306,0,0,1,.07-.1.313.313,0,0,1,.226-.085h2.882v-4.623a.327.327,0,0,1,.067-.193.323.323,0,0,1,.17-.113l3.663-.975a.327.327,0,0,1,.278,0,.322.322,0,0,1,.09.111.341.341,0,0,1,.036.139v5.571h5.055a.321.321,0,0,1,.32.306v2.785a.325.325,0,0,1-.024.123.325.325,0,0,1-.3.2h-5.055v10.778c0,2.591.738,3.691,2.492,3.691a7.868,7.868,0,0,0,2.089-.251.293.293,0,0,1,.133-.032.289.289,0,0,1,.132.032.326.326,0,0,1,.1.1.316.316,0,0,1,.043.134l.167,2.785a.325.325,0,0,1-.046.192.321.321,0,0,1-.149.128A9.75,9.75,0,0,1,253.486,158.525Zm-8.356-18.8h2.883a.315.315,0,0,1,.217.1.322.322,0,0,1,.089.222v11.238c0,2.535.432,4.178,1.393,5.139a4.931,4.931,0,0,0,3.829,1.476,9.971,9.971,0,0,0,2.994-.4l-.139-2.214a8.857,8.857,0,0,1-1.88.181c-2.785,0-3.133-2.465-3.133-4.317V140a.321.321,0,0,1,.32-.32h4.972V137.51h-5.056a.316.316,0,0,1-.226-.094.311.311,0,0,1-.069-.1.308.308,0,0,1-.025-.123v-5.57l-3.036.807v4.693a.3.3,0,0,1-.019.122.3.3,0,0,1-.065.1.3.3,0,0,1-.1.07.311.311,0,0,1-.12.025h-2.883Z" transform="translate(-46.649 -84)" fill="#fff"/>
    <path id="パス_809" data-name="パス 809" d="M264.751,131.411a2.326,2.326,0,0,1-4.651,0,2.272,2.272,0,0,1,2.34-2.34,2.223,2.223,0,0,1,1.671.661,2.225,2.225,0,0,1,.64,1.679Zm-4.177,26.376v-20.6h3.76v20.6Z" transform="translate(-46.649 -84)" fill="#fff"/>
    <path id="パス_810" data-name="パス 810" d="M264.32,158.093h-3.76a.313.313,0,0,1-.117-.023.309.309,0,0,1-.1-.067.3.3,0,0,1-.066-.1.3.3,0,0,1-.024-.117v-20.6a.3.3,0,0,1,.024-.117.3.3,0,0,1,.066-.1.309.309,0,0,1,.1-.067.313.313,0,0,1,.117-.023h3.76a.293.293,0,0,1,.121.019.31.31,0,0,1,.1.065.317.317,0,0,1,.071.1.31.31,0,0,1,.024.12v20.6a.3.3,0,0,1-.1.221.3.3,0,0,1-.1.066A.311.311,0,0,1,264.32,158.093Zm-3.468-.668h3.12V137.51h-3.12Zm1.476-23.452a2.534,2.534,0,0,1-2.576-2.6,2.6,2.6,0,0,1,2.66-2.66,2.549,2.549,0,0,1,2.618,2.66,2.438,2.438,0,0,1-.682,1.824,2.778,2.778,0,0,1-1.992.822Zm.084-4.623a1.963,1.963,0,0,0-2.033,2.019,1.923,1.923,0,0,0,1.949,1.978,2.125,2.125,0,0,0,1.574-.6,1.9,1.9,0,0,0,.394-.645,1.883,1.883,0,0,0,.107-.748,1.925,1.925,0,0,0-.562-1.4,1.915,1.915,0,0,0-1.4-.562Z" transform="translate(-46.649 -84)" fill="#fff"/>
    <path id="パス_811" data-name="パス 811" d="M288.774,147.314c0,7.618-5.292,10.932-10.278,10.932-5.57,0-9.887-4.08-9.887-10.584,0-6.893,4.512-10.932,10.236-10.932S288.774,141.02,288.774,147.314Zm-16.377.223c0,4.5,2.6,7.91,6.267,7.91s6.28-3.356,6.28-7.994c0-3.5-1.755-7.923-6.183-7.923S272.4,143.624,272.4,147.537Z" transform="translate(-46.649 -84)" fill="#fff"/>
    <path id="パス_812" data-name="パス 812" d="M278.5,158.566c-6,0-10.208-4.484-10.208-10.9,0-6.726,4.248-11.252,10.556-11.252s10.25,4.387,10.25,10.9C289.1,155.085,283.775,158.566,278.5,158.566Zm.348-21.529c-5.932,0-9.929,4.275-9.929,10.625,0,6.044,3.941,10.277,9.581,10.277,4.958,0,9.971-3.286,9.971-10.625C288.468,141.173,284.6,137.037,278.845,137.037Zm-.181,18.716c-3.816,0-6.573-3.454-6.573-8.216,0-4.178,2.061-8.356,6.67-8.356s6.49,4.262,6.49,8.23C285.251,152.258,282.48,155.753,278.664,155.753Zm.1-15.9c-4.177,0-6.043,3.857-6.043,7.687,0,4.4,2.506,7.589,5.946,7.589s5.96-3.23,5.96-7.673C284.624,143.791,282.786,139.85,278.761,139.85Z" transform="translate(-46.649 -84)" fill="#fff"/>
    <path id="パス_813" data-name="パス 813" d="M293.119,142.774a52.98,52.98,0,0,0-.181-5.57h3.329l.222,3.412h.084a7.578,7.578,0,0,1,6.824-3.872c2.854,0,7.283,1.7,7.283,8.76v12.3h-3.746V145.935c0-3.328-1.24-6.085-4.777-6.085a5.3,5.3,0,0,0-5.027,3.829,5.029,5.029,0,0,0-.265,1.741V157.8h-3.746Z" transform="translate(-46.649 -84)" fill="#fff"/>
    <path id="パス_814" data-name="パス 814" d="M310.679,158.093h-3.746a.313.313,0,0,1-.121-.019.31.31,0,0,1-.174-.167.293.293,0,0,1-.025-.12V145.922c0-2.632-.766-5.78-4.456-5.78a5,5,0,0,0-4.735,3.607,5.2,5.2,0,0,0-.237,1.657v12.381a.31.31,0,0,1-.024.12.313.313,0,0,1-.071.1.3.3,0,0,1-.1.066.31.31,0,0,1-.121.019h-3.746a.315.315,0,0,1-.122-.019.307.307,0,0,1-.1-.066.3.3,0,0,1-.07-.1.311.311,0,0,1-.025-.12V142.774a54.412,54.412,0,0,0-.167-5.57.313.313,0,0,1,.084-.237.278.278,0,0,1,.223-.1h3.328a.313.313,0,0,1,.217.084.32.32,0,0,1,.1.208l.153,2.535a7.954,7.954,0,0,1,6.657-3.3c1.267,0,7.6.446,7.6,9.08v12.3a.292.292,0,0,1-.021.124.3.3,0,0,1-.3.2Zm-3.425-.627h3.119V145.49c0-8.035-5.821-8.453-6.963-8.453a7.243,7.243,0,0,0-6.545,3.7.306.306,0,0,1-.279.167H296.5a.315.315,0,0,1-.217-.083.321.321,0,0,1-.1-.209l-.2-3.106H293.3c.1,1.491.139,3.092.139,5.264v14.65h3.133V145.365a5.937,5.937,0,0,1,.265-1.853,5.569,5.569,0,0,1,5.334-4.038c3.286,0,5.1,2.27,5.1,6.406Z" transform="translate(-46.649 -84)" fill="#fff"/>
    <path id="パス_815" data-name="パス 815" d="M108.99,113.488a5.361,5.361,0,1,0-5.361-5.361A5.362,5.362,0,0,0,108.99,113.488Z" transform="translate(-46.649 -84)" fill="#fff"/>
    <path id="パス_816" data-name="パス 816" d="M108.99,103.218a4.909,4.909,0,1,0,4.909,4.909A4.909,4.909,0,0,0,108.99,103.218Zm-5.814,4.909a5.814,5.814,0,1,1,5.814,5.814A5.814,5.814,0,0,1,103.176,108.127Z" transform="translate(-46.649 -84)" fill="#fff" fill-rule="evenodd"/>
    <path id="パス_817" data-name="パス 817" d="M114.978,140.63h-8.495a.777.777,0,0,0-.668.39,17.964,17.964,0,0,1-30.456,0,.759.759,0,0,0-.274-.284.75.75,0,0,0-.38-.106H66.224a.767.767,0,0,0-.765.667.769.769,0,0,0,.041.364c3.816,9.581,13.271,15.945,25.067,15.945s21.279-6.337,25.067-15.945a.76.76,0,0,0,.05-.35.757.757,0,0,0-.367-.579A.761.761,0,0,0,114.978,140.63Z" transform="translate(-46.649 -84)" fill="#fff"/>
    <path id="パス_818" data-name="パス 818" d="M66.225,140.178h8.482a1.2,1.2,0,0,1,.609.169,1.213,1.213,0,0,1,.432.442,17.511,17.511,0,0,0,29.679,0,1.237,1.237,0,0,1,.442-.441,1.221,1.221,0,0,1,.61-.167H115a1.2,1.2,0,0,1,1.049,1.65c-3.863,9.8-13.525,16.23-25.488,16.23s-21.6-6.462-25.487-16.23l0-.011a1.217,1.217,0,0,1,.586-1.5A1.207,1.207,0,0,1,66.225,140.178Zm0,.9a.307.307,0,0,0-.146.034.317.317,0,0,0-.113.1.309.309,0,0,0-.054.139.315.315,0,0,0,.015.145c3.743,9.39,13.02,15.653,24.644,15.653s20.933-6.239,24.646-15.658v0a.286.286,0,0,0,.02-.139.3.3,0,0,0-.146-.23.292.292,0,0,0-.124-.04h-8.477a.324.324,0,0,0-.16.044.339.339,0,0,0-.119.119l-.008.014a18.416,18.416,0,0,1-31.223,0l-.013-.022a.3.3,0,0,0-.26-.155Z" transform="translate(-46.649 -84)" fill="#fff" fill-rule="evenodd"/>
    <path id="パス_819" data-name="パス 819" d="M94.466,133.151a.766.766,0,0,0,.708-.472.768.768,0,0,0,.058-.293V92.237h26.459a.765.765,0,0,0,.766-.766V85.218a.765.765,0,0,0-.766-.766H85.957v47.906a.767.767,0,0,0,.766.766Z" transform="translate(-46.649 -84)" fill="#fff"/>
    <path id="パス_820" data-name="パス 820" d="M85.5,84.453A.453.453,0,0,1,85.957,84h35.734a1.219,1.219,0,0,1,1.219,1.218v6.253a1.219,1.219,0,0,1-1.219,1.218H95.685v39.7a1.218,1.218,0,0,1-.752,1.125,1.2,1.2,0,0,1-.466.093l-7.743-.028h0M86.41,84.905v47.453a.314.314,0,0,0,.313.313h0l7.741.028h0a.309.309,0,0,0,.12-.024.319.319,0,0,0,.1-.068.309.309,0,0,0,.068-.1.319.319,0,0,0,.024-.12V92.237a.453.453,0,0,1,.453-.453h26.459a.314.314,0,0,0,.314-.313V85.218a.314.314,0,0,0-.314-.313Z" transform="translate(-46.649 -84)" fill="#fff" fill-rule="evenodd"/>
  </g>
</svg>
