<svg xmlns="http://www.w3.org/2000/svg" width="375" height="812" viewBox="0 0 375 812">
  <rect id="長方形_421" data-name="長方形 421" width="375" height="812" fill="#0099db"/>
  <path id="パス_1920" data-name="パス 1920" d="M140.575,354.428h15.471v3.1H144.279v9.526h10.876v3.063H144.279V383.1h-3.7Z" fill="#fff"/>
  <path id="パス_1922" data-name="パス 1922" d="M170.431,383.1l-.306-2.59H170a7.683,7.683,0,0,1-6.308,3.063,5.875,5.875,0,0,1-6.308-5.89c0-4.972,4.428-7.7,12.408-7.66v-.417c0-1.713-.474-4.777-4.694-4.777a10.311,10.311,0,0,0-5.375,1.532l-.849-2.465a12.9,12.9,0,0,1,6.782-1.824c6.308,0,7.84,4.289,7.84,8.425v7.7a27.968,27.968,0,0,0,.348,4.93Zm-.557-10.514c-4.094-.084-8.745.64-8.745,4.637a3.313,3.313,0,0,0,3.537,3.579,5.152,5.152,0,0,0,5-3.44,4,4,0,0,0,.209-1.2Z" fill="#fff"/>
  <path id="パス_1924" data-name="パス 1924" d="M193.785,382.335a13.81,13.81,0,0,1-5.932,1.2c-6.225,0-10.277-4.178-10.277-10.514a10.473,10.473,0,0,1,11.14-10.932,12.8,12.8,0,0,1,5.209,1.058l-.85,2.9a8.741,8.741,0,0,0-4.359-.975c-4.734,0-7.3,3.481-7.3,7.785,0,4.762,3.078,7.7,7.172,7.7a10.64,10.64,0,0,0,4.61-1.031Z" fill="#fff"/>
  <path id="パス_1926" data-name="パス 1926" d="M199.258,373.506c.084,5.055,3.329,7.144,7.089,7.144a13.73,13.73,0,0,0,5.709-1.059l.641,2.674a16.7,16.7,0,0,1-6.866,1.281c-6.35,0-10.152-4.177-10.152-10.388s3.663-11.141,9.679-11.141c6.74,0,8.537,5.918,8.537,9.748a14.72,14.72,0,0,1-.126,1.755Zm11-2.688c0-2.381-.975-6.086-5.194-6.086-3.8,0-5.459,3.5-5.766,6.086Z" fill="#fff"/>
  <path id="パス_1928" data-name="パス 1928" d="M140.575,398.489a39.191,39.191,0,0,1,7.116-.585c3.969,0,6.531.724,8.355,2.339a7.127,7.127,0,0,1,2.27,5.445A7.521,7.521,0,0,1,152.9,413v.125c2.214.766,3.537,2.785,4.178,5.793a45.215,45.215,0,0,0,2.214,7.868h-3.83a36.275,36.275,0,0,1-1.921-6.851c-.864-3.955-2.4-5.445-5.766-5.571h-3.495v12.422h-3.7Zm3.7,13.062h3.774c3.969,0,6.475-2.172,6.475-5.445,0-3.7-2.687-5.319-6.614-5.361a15.281,15.281,0,0,0-3.663.348Z" fill="#fff"/>
  <path id="パス_1930" data-name="パス 1930" d="M165.168,417.178c.083,5.055,3.328,7.144,7.074,7.144a13.563,13.563,0,0,0,5.724-1.073l.64,2.688a16.774,16.774,0,0,1-6.879,1.267c-6.35,0-10.138-4.177-10.138-10.374s3.662-11.141,9.678-11.141c6.74,0,8.523,5.9,8.523,9.748a14.925,14.925,0,0,1-.125,1.755Zm11-2.688c0-2.381-.975-6.086-5.208-6.086-3.788,0-5.459,3.5-5.752,6.086Z" fill="#fff"/>
  <path id="パス_1932" data-name="パス 1932" d="M199.049,426.021a13.726,13.726,0,0,1-5.918,1.183c-6.225,0-10.278-4.177-10.278-10.5a10.474,10.474,0,0,1,11.141-10.932,12.8,12.8,0,0,1,5.209,1.059l-.864,2.9a8.631,8.631,0,0,0-4.345-.974c-4.735,0-7.3,3.481-7.3,7.784,0,4.763,3.078,7.7,7.172,7.7a10.646,10.646,0,0,0,4.609-1.03Z" fill="#fff"/>
  <path id="パス_1934" data-name="パス 1934" d="M204.536,417.178c.083,5.055,3.328,7.144,7.074,7.144a13.563,13.563,0,0,0,5.724-1.073l.64,2.688a16.7,16.7,0,0,1-6.865,1.267c-6.364,0-10.152-4.177-10.152-10.374s3.662-11.141,9.678-11.141c6.74,0,8.523,5.9,8.523,9.748a14.932,14.932,0,0,1-.125,1.755Zm11-2.688c0-2.381-.975-6.086-5.194-6.086-3.8,0-5.459,3.5-5.765,6.086Z" fill="#fff"/>
  <path id="パス_1936" data-name="パス 1936" d="M223.378,412.916c0-2.632-.084-4.762-.167-6.726h3.37l.167,3.537h.084a8.115,8.115,0,0,1,7.339-4c4.985,0,8.745,4.177,8.745,10.458,0,7.409-4.526,11.057-9.386,11.057a7.223,7.223,0,0,1-6.35-3.231H227.1v11.141h-3.718ZM227.1,418.4a8.666,8.666,0,0,0,.167,1.532,5.795,5.795,0,0,0,5.571,4.387c3.969,0,6.266-3.231,6.266-7.966,0-4.178-2.172-7.645-6.141-7.645a5.989,5.989,0,0,0-5.668,4.637,6.08,6.08,0,0,0-.251,1.532Z" fill="#fff"/>
  <path id="パス_1938" data-name="パス 1938" d="M251.648,400.286v5.9h5.375v2.785h-5.375v11.141c0,2.562.724,4,2.785,4a8.367,8.367,0,0,0,2.172-.251l.181,2.785a9.363,9.363,0,0,1-3.328.5,5.164,5.164,0,0,1-4.052-1.574c-1.073-1.1-1.393-2.924-1.393-5.348V408.989h-3.2V406.2h3.2v-4.93Z" fill="#fff"/>
  <path id="パス_1940" data-name="パス 1940" d="M264.751,400.411a2.326,2.326,0,0,1-4.651,0,2.272,2.272,0,0,1,2.34-2.34,2.223,2.223,0,0,1,1.671.661,2.225,2.225,0,0,1,.64,1.679Zm-4.177,26.376v-20.6h3.76v20.6Z" fill="#fff"/>
  <path id="パス_1942" data-name="パス 1942" d="M288.774,416.314c0,7.618-5.292,10.932-10.278,10.932-5.57,0-9.887-4.08-9.887-10.584,0-6.893,4.512-10.932,10.236-10.932S288.774,410.02,288.774,416.314Zm-16.377.223c0,4.5,2.6,7.91,6.267,7.91s6.28-3.356,6.28-7.994c0-3.495-1.755-7.923-6.183-7.923S272.4,412.624,272.4,416.537Z" fill="#fff"/>
  <path id="パス_1944" data-name="パス 1944" d="M293.119,411.774a52.98,52.98,0,0,0-.181-5.57h3.329l.222,3.412h.084a7.578,7.578,0,0,1,6.824-3.872c2.854,0,7.283,1.7,7.283,8.76v12.3h-3.746V414.935c0-3.328-1.24-6.085-4.777-6.085a5.3,5.3,0,0,0-5.027,3.829,5.029,5.029,0,0,0-.265,1.741V426.8h-3.746Z" fill="#fff"/>
  <path id="パス_1946" data-name="パス 1946" d="M108.99,382.488a5.361,5.361,0,1,0-5.361-5.361A5.362,5.362,0,0,0,108.99,382.488Z" fill="#fff"/>
  <path id="パス_1948" data-name="パス 1948" d="M114.978,409.63h-8.495a.777.777,0,0,0-.668.39,17.964,17.964,0,0,1-30.456,0,.759.759,0,0,0-.274-.284.75.75,0,0,0-.38-.106H66.224a.767.767,0,0,0-.765.667.769.769,0,0,0,.041.364c3.816,9.581,13.271,15.945,25.067,15.945s21.279-6.337,25.067-15.945a.76.76,0,0,0,.05-.35.757.757,0,0,0-.367-.579A.761.761,0,0,0,114.978,409.63Z" fill="#fff"/>
  <path id="パス_1950" data-name="パス 1950" d="M94.466,402.151a.766.766,0,0,0,.708-.472.768.768,0,0,0,.058-.293V361.237h26.459a.765.765,0,0,0,.766-.766v-6.253a.765.765,0,0,0-.766-.765H85.957v47.9a.767.767,0,0,0,.766.766Z" fill="#fff"/>
</svg>
