<svg xmlns="http://www.w3.org/2000/svg" xmlns:xlink="http://www.w3.org/1999/xlink" width="300" height="300" viewBox="0 0 300 300">
  <g id="グループ_321" data-name="グループ 321" transform="translate(-38 -195)">
    <rect id="長方形_443" data-name="長方形 443" width="299.999" height="299.999" transform="translate(38 195)" fill="rgba(196,196,196,0.3)"/>
    <path id="中マド_1" data-name="中マド 1" d="M300,300H0V0H300V300ZM150.468,40.313a81.653,81.653,0,0,0-30.1,5.561,72.178,72.178,0,0,0-24.584,16A73.651,73.651,0,0,0,79.2,87.3a91.9,91.9,0,0,0-6.078,33.825A114.923,114.923,0,0,0,74.7,139.9a121.916,121.916,0,0,0,11.638,35.312,111.571,111.571,0,0,0,9.444,15.331,95.583,95.583,0,0,0,11.446,12.976,77.756,77.756,0,0,0,13.138,10.016,63.033,63.033,0,0,0,14.518,6.453,54.3,54.3,0,0,0,31.174,0,63.028,63.028,0,0,0,14.519-6.453,77.81,77.81,0,0,0,13.138-10.016,95.649,95.649,0,0,0,11.446-12.976,111.583,111.583,0,0,0,9.444-15.331A121.9,121.9,0,0,0,226.241,139.9a114.87,114.87,0,0,0,1.572-18.773A91.9,91.9,0,0,0,221.734,87.3a73.654,73.654,0,0,0-16.575-25.425,72.176,72.176,0,0,0-24.584-16A81.659,81.659,0,0,0,150.468,40.313Z" transform="translate(38 195)" fill="#0099db" opacity="0.5"/>
  </g>
</svg>
